<?xml version="1.0" encoding="UTF-8" standalone="no"?>
<!-- Created with Inkscape (http://www.inkscape.org/) -->

<svg
   xmlns:dc="http://purl.org/dc/elements/1.1/"
   xmlns:cc="http://creativecommons.org/ns#"
   xmlns:rdf="http://www.w3.org/1999/02/22-rdf-syntax-ns#"
   xmlns:svg="http://www.w3.org/2000/svg"
   xmlns="http://www.w3.org/2000/svg"
   xmlns:sodipodi="http://sodipodi.sourceforge.net/DTD/sodipodi-0.dtd"
   xmlns:inkscape="http://www.inkscape.org/namespaces/inkscape"
   width="96"
   height="96"
   viewBox="0 0 25.399999 25.399999"
   version="1.1"
   id="svg8"
   inkscape:version="0.92.4 (5da689c313, 2019-01-14)"
   sodipodi:docname="SiteContentsIcon.svg"
   inkscape:export-filename="C:\Users\Thomas\Desktop\CobaBot\Assets\SiteContentsIcon.png"
   inkscape:export-xdpi="96"
   inkscape:export-ydpi="96">
  <defs
     id="defs2" />
  <sodipodi:namedview
     id="base"
     pagecolor="#ffffff"
     bordercolor="#666666"
     borderopacity="1.0"
     inkscape:pageopacity="0.0"
     inkscape:pageshadow="2"
     inkscape:zoom="0.98994949"
     inkscape:cx="-401.46462"
     inkscape:cy="210.48346"
     inkscape:document-units="mm"
     inkscape:current-layer="layer1"
     showgrid="false"
     units="px"
     inkscape:window-width="1443"
     inkscape:window-height="1085"
     inkscape:window-x="160"
     inkscape:window-y="160"
     inkscape:window-maximized="0" />
  <metadata
     id="metadata5">
    <rdf:RDF>
      <cc:Work
         rdf:about="">
        <dc:format>image/svg+xml</dc:format>
        <dc:type
           rdf:resource="http://purl.org/dc/dcmitype/StillImage" />
        <dc:title />
      </cc:Work>
    </rdf:RDF>
  </metadata>
  <g
     inkscape:label="Layer 1"
     inkscape:groupmode="layer"
     id="layer1"
     transform="translate(0,-271.60001)">
    <path
       style="fill:#ffffff;stroke-width:0.26458332"
       d="m 10.71564,292.64266 v -1.88448 H 8.7605797 c -2.8069598,0 -3.1679998,-0.34502 -3.2953398,-3.14908 -0.0934,-2.05668 -0.1227,-2.14259 -0.73074,-2.14259 -0.58374,0 -0.63344,-0.1038 -0.63344,-1.32292 0,-1.21633 0.0507,-1.32291 0.62869,-1.32291 0.57327,0 0.63966,-0.13216 0.75302,-1.49917 0.18179,-2.1921 0.6244,-2.46958 3.9392701,-2.46958 h 2.61652 v -1.17501 c 0,-0.64626 -0.11907,-1.2486 -0.26459,-1.33853 -0.36572,-0.22603 -0.33221,-1.28175 0.0529,-1.66688 0.40812,-0.40812 1.33813,-0.40812 1.74625,0 0.38513,0.38513 0.41864,1.44085 0.0529,1.66688 -0.14552,0.0899 -0.26458,0.69227 -0.26458,1.33853 v 1.17501 h 2.65786 c 2.46915,0 2.70397,0.0461 3.30729,0.64943 0.5179,0.5179 0.64943,0.9198 0.64943,1.98437 0,1.24755 0.0433,1.33495 0.66146,1.33495 0.61736,0 0.66146,0.0882 0.66146,1.32291 0,1.23473 -0.0441,1.32292 -0.66146,1.32292 -0.64711,0 -0.66146,0.0433 -0.66146,1.9964 0,1.76686 -0.0747,2.07107 -0.64943,2.64584 -0.55953,0.55953 -0.89341,0.64943 -2.41198,0.64943 h -1.76255 l -1.75521,1.52737 c -2.93414,2.55329 -2.68124,2.5196 -2.68124,0.35711 z m 5.88379,-3.2074 1.92142,-0.13229 v -4.49792 -4.49791 H 12.70002 6.8791797 v 4.49791 4.49792 l 2.5796903,0.0757 2.57969,0.0757 v 1.19572 1.19573 l 1.31972,-1.13916 c 1.23811,-1.06871 1.43856,-1.14734 3.24115,-1.27145 z m -5.72424,-1.7136 c -0.56709,-0.20209 -1.21768,-0.55406 -1.44576,-0.78213 -0.37652,-0.37652 -0.37641,-0.45296 10e-4,-0.83058 0.37814,-0.37814 0.49738,-0.36622 1.31347,0.1313 0.51245,0.31242 1.35166,0.5472 1.9559,0.5472 0.60424,0 1.44345,-0.23478 1.95591,-0.5472 0.79133,-0.48243 0.94379,-0.50098 1.28807,-0.15669 0.51766,0.51766 0.22738,0.9214 -1.09381,1.52136 -1.28959,0.5856 -2.55508,0.62277 -3.97499,0.11674 z m -1.48247,-4.23952 c 0,-0.52917 0.1323,-0.66146 0.66146,-0.66146 0.52917,0 0.66146,0.13229 0.66146,0.66146 0,0.52916 -0.13229,0.66145 -0.66146,0.66145 -0.52916,0 -0.66146,-0.13229 -0.66146,-0.66145 z m 5.29167,0 c 0,-0.52917 0.13229,-0.66146 0.66146,-0.66146 0.52917,0 0.66146,0.13229 0.66146,0.66146 0,0.52916 -0.13229,0.66145 -0.66146,0.66145 -0.52917,0 -0.66146,-0.13229 -0.66146,-0.66145 z"
       id="path4529"
       inkscape:connector-curvature="0" />
  </g>
</svg>
